<?xml version="1.0" encoding="utf-8"?><svg version="1.1" id="Layer_1" xmlns="http://www.w3.org/2000/svg" xmlns:xlink="http://www.w3.org/1999/xlink" x="0px" y="0px" viewBox="0 0 99.12 122.88" style="enable-background:new 0 0 99.12 122.88" xml:space="preserve"><style type="text/css">.st0{fill-rule:evenodd;clip-rule:evenodd;}</style><g><path class="st0" d="M19.31,70.77l0.06,0.03l0.43,0.17l0,0.01c19.54,8.19,39.08,7.75,58.62,0.02l4.35-1.75l-1.24-8.41 c-9.48,5.91-20.31,8.55-32.09,8.85c-11.28-0.08-22.1-2.55-32.16-8.89l-1.42,8.6L19.31,70.77L19.31,70.77L19.31,70.77z M90.08,61.23 l0.64,7.09c1.39,0.17,2.42,1,3.13,2.27c0.87,1.57,1.12,3.87,0.9,6.39c-0.21,2.38-0.84,4.99-1.76,7.35c-1.62,4.15-4.21,7.57-7.25,8 c-0.32,1.04-0.64,2.11-0.94,3.14c-1.55,5.25-2.77,9.37-5.97,13.41c-3.55,4.49-8.13,7.93-12.99,10.27 c-5.33,2.57-11.03,3.83-16.09,3.72c-4.77-0.1-10.21-1.43-15.35-3.92c-4.68-2.27-9.14-5.5-12.67-9.62 c-3.9-4.57-5.52-9.39-7.63-15.67c-0.24-0.72-0.49-1.47-0.73-2.15c-2.68-0.07-4.93-2.35-6.52-5.49c-1.24-2.45-2.1-5.48-2.41-8.26 c-0.33-2.94-0.05-5.7,1.02-7.45c0.75-1.23,1.81-2.01,3.2-2.14l0.59-5.95l-0.97-9.6l-1.9-2.32l0.51-6.43 c-2.22-2.81-4.09-6.24-5.52-9.5c-2.26-5.15-1.89-5.83,2.45-7.91c8.34-4,15.78-7.51,22.39-12.29C35.6,7.33,38.99-1.77,52.63,0.3 c7.26,1.1,13.76,9.63,19.49,14.46c6.47,5.44,13.55,9.22,20.6,11.82c8.59,2.78,7.32,5.36,3.16,12.75c-1.07,1.9-2.3,3.57-3.66,5.05 l0.51,5.56l-2.02,2.43L90.08,61.23L90.08,61.23z M43.27,108.28c-0.89,0-1.61-0.72-1.61-1.61c0-0.89,0.72-1.61,1.61-1.61h1.6 c0.34,0,0.66,0.11,0.92,0.29c1.18,0.66,2.34,1.05,3.47,1.08c1.12,0.03,2.26-0.3,3.42-1.09c0.28-0.19,0.59-0.28,0.9-0.28v-0.01h2.27 c0.89,0,1.61,0.72,1.61,1.61c0,0.89-0.72,1.61-1.61,1.61h-1.81c-1.6,0.98-3.22,1.4-4.85,1.36c-1.6-0.04-3.17-0.53-4.72-1.36H43.27 L43.27,108.28z M11.3,70.95c-0.39,0.43-0.99,0.64-1.59,0.49c-0.72-0.18-1.21,0.04-1.5,0.53c-0.68,1.11-0.82,3.14-0.56,5.43 c0.27,2.43,1.02,5.05,2.09,7.17c1.21,2.4,2.77,4.08,4.31,3.64l0,0c0.81-0.23,1.67,0.21,1.95,1.02c0.48,1.39,0.83,2.42,1.16,3.4 c1.99,5.94,3.53,10.51,7.02,14.6c3.22,3.77,7.32,6.73,11.62,8.82c4.73,2.29,9.69,3.52,14.01,3.61c4.57,0.09,9.75-1.06,14.63-3.41 c4.46-2.15,8.65-5.28,11.87-9.36c2.8-3.54,3.94-7.41,5.4-12.32c0.37-1.26,0.77-2.59,1.28-4.2c0.19-0.83,1-1.38,1.85-1.23 c1.85,0.33,3.8-2.51,5.15-5.97c0.82-2.1,1.37-4.39,1.56-6.45c0.17-1.92,0.04-3.58-0.51-4.55c-0.27-0.49-0.74-0.73-1.45-0.58l0,0 c-0.06,0.01-0.12,0.02-0.19,0.03c-0.63,0.06-1.21-0.26-1.52-0.77l-3.17,1.98l0.01,0.03l-0.59,0.34l-0.72,0.45l-0.01-0.04 l-2.65,1.51c2.62,17.19-19.63,24.93-28.21,4.76h-5.98c-8.77,20.11-30.69,12.8-28.23-4.93l-3.1-1.77l0,0L11.3,70.95L11.3,70.95z M49.97,25.32l2.2,5.14l5.57,0.5c0.25,0.02,0.43,0.24,0.41,0.48c-0.01,0.12-0.06,0.22-0.15,0.3l0,0l-4.22,3.68l1.25,5.46 c0.06,0.24-0.1,0.48-0.34,0.54c-0.12,0.03-0.25,0-0.34-0.06l-4.79-2.86l-4.8,2.87c-0.21,0.13-0.49,0.06-0.61-0.15 c-0.04-0.07-0.06-0.15-0.06-0.23c0-0.03,0-0.07,0.01-0.1l0,0l1.25-5.46l-4.22-3.68c-0.19-0.16-0.2-0.45-0.04-0.63 c0.08-0.09,0.19-0.15,0.31-0.15l5.56-0.5l2.2-5.15c0.1-0.23,0.36-0.33,0.59-0.24C49.84,25.12,49.93,25.21,49.97,25.32L49.97,25.32z M49.51,18.93c5.67,3.59,10.79,5.29,15.19,4.89c0.77,15.53-4.97,24.7-15.13,28.52c-9.81-3.58-15.62-12.36-15.19-28.76 C39.54,23.86,44.6,22.75,49.51,18.93L49.51,18.93z"/></g></svg>